<?xml version="1.0" encoding="UTF-8" standalone="no"?>
<svg
   xmlns:dc="http://purl.org/dc/elements/1.1/"
   xmlns:cc="http://creativecommons.org/ns#"
   xmlns:rdf="http://www.w3.org/1999/02/22-rdf-syntax-ns#"
   xmlns:svg="http://www.w3.org/2000/svg"
   xmlns="http://www.w3.org/2000/svg"
   xmlns:sodipodi="http://sodipodi.sourceforge.net/DTD/sodipodi-0.dtd"
   xmlns:inkscape="http://www.inkscape.org/namespaces/inkscape"
   version="1.1"
   id="svg2"
   xml:space="preserve"
   width="266.66666"
   height="266.66666"
   viewBox="0 0 266.66666 266.66666"
   sodipodi:docname="sophie-bot-squares.ai"><metadata
     id="metadata8"><rdf:RDF><cc:Work
         rdf:about=""><dc:format>image/svg+xml</dc:format><dc:type
           rdf:resource="http://purl.org/dc/dcmitype/StillImage" /></cc:Work></rdf:RDF></metadata><defs
     id="defs6"><clipPath
       clipPathUnits="userSpaceOnUse"
       id="clipPath18"><path
         d="M 0,200 H 200 V 0 H 0 Z"
         id="path16" /></clipPath></defs><sodipodi:namedview
     pagecolor="#ffffff"
     bordercolor="#666666"
     borderopacity="1"
     objecttolerance="10"
     gridtolerance="10"
     guidetolerance="10"
     inkscape:pageopacity="0"
     inkscape:pageshadow="2"
     inkscape:window-width="640"
     inkscape:window-height="480"
     id="namedview4" /><g
     id="g10"
     inkscape:groupmode="layer"
     inkscape:label="sophie-bot-squares"
     transform="matrix(1.3333333,0,0,-1.3333333,0,266.66667)"><g
       id="g12"><g
         id="g14"
         clip-path="url(#clipPath18)"><g
           id="g20"
           transform="translate(107.8092,169.681)"><path
             d="m 0,0 h 32.87 c 1.455,0 2.795,-0.79 3.5,-2.064 l 33.103,-59.843 c 1.475,-2.666 -0.454,-5.936 -3.5,-5.936 H -4 V -4 c 0,2.209 1.791,4 4,4"
             style="fill:#343434;fill-opacity:1;fill-rule:nonzero;stroke:none"
             id="path22" /></g><g
           id="g24"
           transform="translate(103.8092,93.9835)"><path
             d="m 0,0 h 69.973 c 3.046,0 4.975,-3.27 3.5,-5.936 L 40.37,-65.779 c -0.705,-1.273 -2.045,-2.064 -3.5,-2.064 H 4 c -2.209,0 -4,1.791 -4,4 z"
             style="fill:#cc4241;fill-opacity:1;fill-rule:nonzero;stroke:none"
             id="path26" /></g><g
           id="g28"
           transform="translate(96.1908,101.8383)"><path
             d="m 0,0 h -69.973 c -3.046,0 -4.975,3.27 -3.5,5.936 l 33.103,59.843 c 0.705,1.273 2.045,2.064 3.5,2.064 H -4 c 2.209,0 4,-1.791 4,-4 z"
             style="fill:#7a7a7a;fill-opacity:1;fill-rule:nonzero;stroke:none"
             id="path30" /></g><g
           id="g32"
           transform="translate(92.1908,26.1408)"><path
             d="m 0,0 h -32.87 c -1.455,0 -2.795,0.79 -3.5,2.064 l -33.103,59.843 c -1.475,2.666 0.454,5.936 3.5,5.936 H 4 V 4 C 4,1.791 2.209,0 0,0"
             style="fill:#ababab;fill-opacity:1;fill-rule:nonzero;stroke:none"
             id="path34" /></g></g></g></g></svg>
